# xmcd CD database file generated by OrangeCD 6.2
#
# Track frame offsets:
#	150
#	19937
#	48772
#	75072
#	90572
#	111775
#	129037
#	163497
#	182840
#	208782
#	227192
#
# Disc length: 3379 seconds
#
# Revision: 4
# Processed by: cddbd v1.5.2PL0 Copyright (c) Steve Scherf et al.
# Submitted via: OrangeCD 6.2
#
DISCID=820d310b
DTITLE=Various Artist - Women of Blue Chicago
DYEAR=1993
DGENRE=Blues
TTITLE0=Baby, What you Want Me To Do - Bonnie Lee
TTITLE1=Vicksburg Blues - Karen Carroll
TTITLE2=As The Years Go Passing By - Shirley Johnson
TTITLE3=I'm Shakin' - Lynne Jordan
TTITLE4=The Thrill Is Gone - Big Time Sarah
TTITLE5=Walking Blues - Bonnie Lee
TTITLE6=Goin' Down Slow - Karen Carroll
TTITLE7=It Hurts Me Too - Shirley Johnson
TTITLE8=If I Can't Sell It - Lynne Jordan
TTITLE9=Wild Abouth That Thing - Katherine Davis
TTITLE10=Why My Man Won't Treat Me Right - Big Time Sarah
EXTD=
EXTT0=
EXTT1=
EXTT2=
EXTT3=
EXTT4=
EXTT5=
EXTT6=
EXTT7=
EXTT8=
EXTT9=
EXTT10=
PLAYORDER=
